<?xml version="1.0" encoding="utf-8"?>
<!-- Generator: Adobe Illustrator 23.0.3, SVG Export Plug-In . SVG Version: 6.00 Build 0)  -->
<svg version="1.1" id="Layer_1" xmlns="http://www.w3.org/2000/svg" xmlns:xlink="http://www.w3.org/1999/xlink" x="0px" y="0px"
	 viewBox="0 0 136.279 45.15" style="enable-background:new 0 0 136.279 45.15;" xml:space="preserve">
<style type="text/css">
	.st0{fill:#27AAE1;}
	.st1{fill:#BCBEC0;stroke:#BCBEC0;stroke-width:0.3001;}
	.st2{fill:#BCBEC0;}
</style>
<g>
	<path class="st0" d="M11.897,36.578l1.506-3.901c0.14-0.409,0.236-0.698,0.255-0.867c0.042-0.361-0.178-0.602-0.634-0.674
		c-0.18-0.048-0.611-0.072-1.262-0.072H6.371l-2.158,5.514H0l4.282-11.004h4.245l-1.059,2.721h5.36c0.96,0,1.62-0.072,1.949-0.241
		c0.36-0.169,0.661-0.626,0.965-1.373l0.438-1.108c0.171-0.409,0.236-0.698,0.259-0.891c0.042-0.361-0.181-0.578-0.635-0.674
		c-0.183-0.024-0.614-0.048-1.295-0.048H4.902l1.096-2.769h11.184c1.58,0,2.65,0.121,3.214,0.337
		c0.62,0.265,0.905,0.747,0.821,1.469c-0.042,0.361-0.193,0.867-0.418,1.469l-1.284,3.323c-0.18,0.482-0.475,0.891-0.858,1.252
		c-0.453,0.434-0.912,0.65-1.438,0.65c0.73,0.121,1.054,0.53,0.97,1.252c-0.022,0.193-0.078,0.409-0.165,0.626l-1.945,5.009H11.897z
		"/>
	<path class="st0" d="M17.61,36.578l5.998-15.386h4.213l-5.968,15.386H17.61z"/>
	<path class="st0" d="M39.118,35.952c-0.822,0.409-2.211,0.626-4.193,0.626H23.772l4.282-11.004h4.213l-3.186,8.235h5.36
		c0.961,0,1.62-0.072,1.949-0.241c0.36-0.169,0.693-0.626,0.965-1.373l2.565-6.621c0.171-0.409,0.267-0.698,0.289-0.891
		c0.042-0.361-0.181-0.578-0.634-0.674c-0.211-0.048-0.645-0.048-1.296-0.048h-9.604l1.096-2.769h11.153
		c1.58,0,2.681,0.121,3.273,0.361c0.622,0.241,0.876,0.722,0.792,1.444c-0.042,0.361-0.193,0.867-0.418,1.469l-3.442,8.837
		C40.601,34.652,39.94,35.542,39.118,35.952z"/>
	<path class="st0" d="M46.261,36.578c-1.58,0-2.682-0.121-3.242-0.361c-0.62-0.265-0.905-0.747-0.824-1.445
		c0.045-0.385,0.194-0.867,0.419-1.469l3.442-8.837c0.531-1.373,1.189-2.239,2.011-2.649c0.822-0.409,2.21-0.626,4.193-0.626h11.153
		l-1.065,2.769h-9.604c-0.961,0-1.62,0.072-1.915,0.217c-0.36,0.168-0.695,0.65-0.998,1.396l-2.596,6.621
		c-0.171,0.409-0.236,0.698-0.255,0.867c-0.042,0.361,0.181,0.578,0.634,0.674c0.211,0.048,0.642,0.072,1.293,0.072h5.359
		l1.405-3.563h-6.01l1.068-2.793h10.255l-3.568,9.126H46.261z"/>
	<path class="st0" d="M59.35,36.578l4.282-11.004h4.213l-0.716,1.902h5.36l-1.065,2.769h-5.391l-1.374,3.563h11.835l-1.065,2.769
		H59.35z M64.253,23.961l1.065-2.769h16.11l-1.096,2.769H64.253z"/>
	<path class="st0" d="M76.883,36.578l6.04-15.483h4.214l-4.942,12.689h7.498l-1.068,2.793H76.883z"/>
	<path class="st0" d="M90.228,36.578l5.999-15.386h4.213l-5.968,15.386H90.228z"/>
	<path class="st0" d="M107.381,36.578l-3.296-8.716l-3.397,8.716h-4.245l5.999-15.386h4.275l3.381,10.113l3.962-10.113h4.245
		l-5.999,15.386H107.381z"/>
	<path class="st0" d="M114.202,36.578l4.282-11.004h4.213l-0.716,1.902h5.36l-1.065,2.769h-5.391l-1.374,3.563h11.835l-1.065,2.769
		H114.202z M119.104,23.961l1.065-2.769h16.11l-1.096,2.769H119.104z"/>
</g>
<g>
	<path class="st1" d="M37.369,40.458c-1.654,0-3.293,0.852-3.859,2.307C32.977,44.139,33.888,45,35.505,45
		c1.444,0,3.246-0.7,3.871-2.307C39.892,41.365,39.084,40.458,37.369,40.458z M38.254,42.72c-0.38,0.979-1.433,1.688-2.47,1.688
		c-1.061,0-1.535-0.718-1.165-1.669c0.321-0.826,1.211-1.688,2.495-1.688C38.397,41.051,38.54,41.984,38.254,42.72z"/>
	<path class="st1" d="M47.484,42.738c-0.396,0.512-0.734,0.969-1.004,1.409h-0.037c0.035-0.44,0.04-0.897,0.02-1.418l-0.081-2.172
		h-0.913l-1.836,2.216c-0.379,0.467-0.758,0.934-1.065,1.373H42.53c0.064-0.449,0.077-0.897,0.093-1.382l0.068-2.208h-1.111
		l0.114,4.344h0.987l1.765-2.064c0.391-0.466,0.75-0.915,1.101-1.436h0.024c-0.051,0.512-0.046,0.943-0.024,1.428l0.107,2.073h0.987
		l3.614-4.344h-1.074L47.484,42.738z"/>
	<path class="st1" d="M55.203,40.458c-0.987,0-1.836,0.404-2.292,0.816h-0.025l0.217-0.717H52.14
		c-0.102,0.358-0.233,0.727-0.407,1.175l-1.232,3.168h1.086l1.015-2.612c0.052-0.134,0.129-0.269,0.217-0.368
		c0.356-0.44,1.054-0.808,1.77-0.808c1.024,0,1.155,0.584,0.883,1.284L54.5,44.901h1.086l1.008-2.594
		C57.173,40.817,56.029,40.458,55.203,40.458z"/>
	<path class="st1" d="M62.274,40.458c-1.74,0-3.203,1.032-3.712,2.342c-0.509,1.311,0.247,2.19,2.086,2.19
		c0.95,0,1.66-0.144,2.091-0.269l0.035-0.565c-0.456,0.126-0.964,0.225-1.741,0.225c-1.086,0-1.853-0.44-1.462-1.508h4.196
		c0.044-0.081,0.117-0.206,0.18-0.368C64.257,41.706,64.224,40.458,62.274,40.458z M62.975,42.307h-3.171
		c0.299-0.547,1.066-1.283,2.164-1.283C63.189,41.024,63.182,41.805,62.975,42.307z"/>
	<path class="st1" d="M69.531,40.458c-0.728,0-1.525,0.368-2.023,0.951h-0.05l0.294-0.852h-0.95
		c-0.119,0.403-0.278,0.843-0.477,1.355l-1.162,2.989h1.074l0.9-2.315c0.052-0.135,0.126-0.26,0.193-0.368
		c0.378-0.592,1.085-1.014,1.85-1.014c0.148,0,0.255,0.009,0.359,0.027l0.289-0.745C69.737,40.467,69.654,40.458,69.531,40.458z"/>
	<path class="st1" d="M71.068,41.733c-0.202,0.521,0.137,0.951,1.102,1.23c0.719,0.215,0.947,0.421,0.8,0.799
		c-0.14,0.358-0.621,0.646-1.411,0.646c-0.543,0-1.048-0.162-1.31-0.314l-0.505,0.601c0.35,0.18,0.909,0.296,1.563,0.296
		c1.419,0,2.444-0.539,2.74-1.302c0.251-0.647-0.133-1.023-1.059-1.311c-0.694-0.215-0.989-0.377-0.849-0.736
		c0.126-0.323,0.588-0.592,1.23-0.592c0.555,0,0.931,0.144,1.124,0.251l0.495-0.574c-0.277-0.144-0.759-0.269-1.364-0.269
		C72.341,40.458,71.34,41.032,71.068,41.733z"/>
	<path class="st1" d="M76.187,42.774c-0.516,1.329,0.31,2.217,2.113,2.217c0.802,0,1.488-0.144,1.813-0.252l0.045-0.592
		c-0.347,0.099-0.8,0.215-1.417,0.215c-1.185,0-1.833-0.619-1.442-1.624c0.352-0.907,1.379-1.643,2.749-1.643
		c0.592,0,0.961,0.099,1.179,0.206l0.484-0.61c-0.254-0.108-0.777-0.225-1.419-0.225C78.342,40.467,76.707,41.437,76.187,42.774z"/>
	<polygon class="st1" points="82.042,44.901 83.129,44.901 85.606,38.528 84.519,38.528 	"/>
	<path class="st1" d="M90.25,43.223c-0.055,0.143-0.148,0.287-0.255,0.404c-0.334,0.35-0.983,0.718-1.711,0.718
		c-0.987,0-1.116-0.556-0.796-1.382l0.935-2.406h-1.086l-0.987,2.54C85.756,44.623,86.733,45,87.671,45
		c1.061,0,1.869-0.458,2.289-0.808h0.024l-0.214,0.709h0.962c0.096-0.341,0.237-0.736,0.412-1.184l1.228-3.159h-1.086L90.25,43.223z
		"/>
	<path class="st1" d="M98.106,40.458c-0.963,0-1.775,0.314-2.347,0.799h-0.025l1.061-2.729h-1.074l-2.041,5.251
		c-0.15,0.386-0.346,0.826-0.486,1.122h0.938l0.328-0.718h0.037C94.72,44.757,95.317,45,96.181,45c1.333,0,2.978-0.772,3.582-2.325
		C100.288,41.355,99.587,40.458,98.106,40.458z M98.666,42.702c-0.387,0.996-1.328,1.669-2.463,1.669
		c-0.79,0-1.273-0.377-1.269-0.924c0.01-0.09,0.024-0.189,0.062-0.287l0.304-0.781c0.049-0.125,0.128-0.233,0.187-0.323
		c0.456-0.602,1.29-0.97,2.031-0.97C98.677,41.087,99.005,41.832,98.666,42.702z"/>
	<path class="st1" d="M101.82,43.869c-0.432,0-0.831,0.233-0.96,0.565c-0.125,0.323,0.076,0.566,0.508,0.566
		c0.457,0,0.835-0.243,0.961-0.566C102.457,44.102,102.252,43.869,101.82,43.869z"/>
	<path class="st1" d="M104.639,42.774c-0.517,1.329,0.31,2.217,2.112,2.217c0.802,0,1.488-0.144,1.813-0.252l0.045-0.592
		c-0.347,0.099-0.8,0.215-1.417,0.215c-1.185,0-1.833-0.619-1.442-1.624c0.352-0.907,1.379-1.643,2.749-1.643
		c0.592,0,0.961,0.099,1.179,0.206l0.484-0.61c-0.255-0.108-0.777-0.225-1.419-0.225C106.793,40.467,105.158,41.437,104.639,42.774z
		"/>
	<path class="st1" d="M114.656,40.458c-1.654,0-3.293,0.852-3.858,2.307c-0.534,1.373,0.378,2.235,1.995,2.235
		c1.444,0,3.246-0.7,3.871-2.307C117.179,41.365,116.372,40.458,114.656,40.458z M115.541,42.72c-0.38,0.979-1.433,1.688-2.47,1.688
		c-1.061,0-1.535-0.718-1.165-1.669c0.321-0.826,1.212-1.688,2.495-1.688C115.685,41.051,115.828,41.984,115.541,42.72z"/>
	<path class="st1" d="M126.28,40.458c-0.568,0-1.005,0.107-1.439,0.305c-0.299,0.135-0.606,0.324-0.886,0.566h-0.025
		c-0.061-0.512-0.538-0.871-1.352-0.871c-0.988,0-1.693,0.386-2.187,0.799h-0.037l0.222-0.7h-0.95
		c-0.102,0.358-0.233,0.727-0.407,1.175l-1.232,3.168h1.061l1.019-2.621c0.052-0.134,0.13-0.269,0.237-0.386
		c0.327-0.395,0.974-0.79,1.652-0.79c0.827,0,1.051,0.503,0.783,1.194l-1.012,2.602h1.061l1.044-2.684
		c0.055-0.143,0.148-0.287,0.239-0.395c0.336-0.386,0.946-0.718,1.563-0.718c0.876,0,1.1,0.503,0.776,1.337l-0.956,2.459h1.061
		l0.994-2.558C128.095,40.835,127.07,40.458,126.28,40.458z"/>
</g>
<polygon class="st2" points="7.253,18.302 8.972,17.797 10.387,16.179 12.106,14.919 13.825,14.919 15.14,14.46 15.14,12.943 
	16.454,12.033 17.971,11.022 19.791,9.404 22.42,9.404 23.128,10.213 24.746,9.909 24.746,8.595 26.263,7.179 29.599,7.179 
	31.622,5.966 33.77,5.966 36.374,5.258 37.891,3.741 39.61,3.741 41.127,3.741 43.756,2.427 46.284,0 49.317,2.528 50.328,2.528 
	52.553,4.247 55.081,6.269 57.002,6.37 58.216,7.179 59.328,8.696 61.148,7.988 62.867,9.151 65.395,9.151 66.608,8.292 
	68.264,5.865 69.945,5.056 71.462,5.46 73.08,7.382 74.293,7.786 76.72,9.808 78.54,10.011 80.36,7.887 82.383,9.151 83.245,9.151 
	85.214,4.854 86.528,5.46 88.247,4.348 88.854,1.517 89.764,0.809 90.775,1.213 92.494,0 94.314,0 95.831,0.809 99.269,3.034 
	99.269,5.056 102.707,5.359 104.123,6.674 106.448,5.966 108.774,2.932 110.898,4.348 115.043,5.258 117.167,6.775 120.605,9.151 
	122.526,9.151 124.043,11.123 126.672,11.932 128.896,12.741 129.705,14.055 131.323,15.875 135.873,18.292 126.166,18.292 
	124.346,16.179 123.335,14.055 121.009,14.359 119.796,15.774 118.481,15.572 116.762,14.156 116.56,12.437 111.706,11.73 
	107.358,11.022 104.123,9.151 101.797,9.151 98.46,9.151 96.539,5.663 94.517,6.775 89.461,9.808 86.933,12.033 84.708,12.64 
	84.304,13.853 79.45,14.919 76.214,14.919 72.069,10.617 66.608,14.919 64.586,15.471 62.665,13.954 60.541,14.919 59.025,14.257 
	57.103,10.921 54.474,10.617 53.564,7.179 50.834,6.876 48.913,4.854 44.767,7.786 43.453,9.808 40.925,10.415 39.104,11.932 
	37.385,12.539 33.77,8.292 31.521,10.213 26.97,10.82 24.746,12.539 22.724,14.919 19.589,14.919 18.881,16.179 16.555,17.089 
	15.342,18.302 "/>
</svg>
